# xmcd
#
# Track frame offsets: 
#        150
#        46052
#        83730
#        115772
#        160845
#        199208
#
# Disc length: 4028 seconds
#
# Revision: 0
# Processed by: cddbd v1.5.2PL0 Copyright (c) Steve Scherf et al.
# Submitted via: ExactAudioCopyFreeDBPlugin 1.0
#
DISCID=410fba06
DTITLE=Obelyskkh - Hymn to Pan
DYEAR=2013
DGENRE=doom
TTITLE0=Hymn To Pan
TTITLE1=The Ravens
TTITLE2=The Man Within
TTITLE3=Heaven's Architrave
TTITLE4=Horse
TTITLE5=Revelation: The Will to Nothingness 
EXTD=
EXTT0=
EXTT1=
EXTT2=
EXTT3=
EXTT4=
EXTT5=
PLAYORDER=
